<mxfile host="app.diagrams.net" agent="Mozilla/5.0 (Windows NT 10.0; Win64; x64) AppleWebKit/537.36 (KHTML, like Gecko) Chrome/139.0.0.0 Safari/537.36" version="28.1.2">
  <diagram name="casos_uso" id="u5KT80LsHVRryV3OdC5e">
    <mxGraphModel dx="679" dy="358" grid="1" gridSize="10" guides="1" tooltips="1" connect="1" arrows="1" fold="1" page="1" pageScale="1" pageWidth="827" pageHeight="1169" math="0" shadow="0">
      <root>
        <mxCell id="0" />
        <mxCell id="1" parent="0" />
        <mxCell id="K1Um82VQvjelmYrkA8v8-73" value="" style="rounded=0;whiteSpace=wrap;html=1;" parent="1" vertex="1">
          <mxGeometry x="640" y="40" width="340" height="500" as="geometry" />
        </mxCell>
        <mxCell id="K1Um82VQvjelmYrkA8v8-53" value="" style="rounded=0;whiteSpace=wrap;html=1;" parent="1" vertex="1">
          <mxGeometry x="120" y="40" width="380" height="560" as="geometry" />
        </mxCell>
        <mxCell id="K1Um82VQvjelmYrkA8v8-1" value="RF0-01&lt;div&gt;ver usuarios&lt;/div&gt;" style="ellipse;whiteSpace=wrap;html=1;" parent="1" vertex="1">
          <mxGeometry x="160" y="180" width="120" height="40" as="geometry" />
        </mxCell>
        <mxCell id="K1Um82VQvjelmYrkA8v8-2" value="RF0-02&lt;div&gt;ver usuario&lt;/div&gt;" style="ellipse;whiteSpace=wrap;html=1;" parent="1" vertex="1">
          <mxGeometry x="200" y="300" width="120" height="40" as="geometry" />
        </mxCell>
        <mxCell id="K1Um82VQvjelmYrkA8v8-3" value="RF0-03&lt;div&gt;ver catálogo&lt;/div&gt;" style="ellipse;whiteSpace=wrap;html=1;" parent="1" vertex="1">
          <mxGeometry x="320" y="380" width="120" height="40" as="geometry" />
        </mxCell>
        <mxCell id="K1Um82VQvjelmYrkA8v8-4" value="RF0-04&lt;div&gt;ver historial&lt;/div&gt;" style="ellipse;whiteSpace=wrap;html=1;" parent="1" vertex="1">
          <mxGeometry x="360" y="220" width="120" height="40" as="geometry" />
        </mxCell>
        <mxCell id="K1Um82VQvjelmYrkA8v8-5" value="RF0-05&lt;div&gt;ver chat&lt;/div&gt;" style="ellipse;whiteSpace=wrap;html=1;" parent="1" vertex="1">
          <mxGeometry x="320" y="140" width="120" height="40" as="geometry" />
        </mxCell>
        <mxCell id="K1Um82VQvjelmYrkA8v8-6" value="RF0-06&lt;div&gt;ver producto&lt;/div&gt;" style="ellipse;whiteSpace=wrap;html=1;" parent="1" vertex="1">
          <mxGeometry x="200" y="460" width="120" height="40" as="geometry" />
        </mxCell>
        <mxCell id="K1Um82VQvjelmYrkA8v8-7" value="RF0-07&lt;div&gt;ver productos&lt;/div&gt;" style="ellipse;whiteSpace=wrap;html=1;" parent="1" vertex="1">
          <mxGeometry x="160" y="540" width="120" height="40" as="geometry" />
        </mxCell>
        <mxCell id="K1Um82VQvjelmYrkA8v8-8" value="RF0-08&lt;div&gt;ver chats&lt;/div&gt;" style="ellipse;whiteSpace=wrap;html=1;" parent="1" vertex="1">
          <mxGeometry x="160" y="60" width="120" height="40" as="geometry" />
        </mxCell>
        <mxCell id="K1Um82VQvjelmYrkA8v8-9" value="RF0-09&lt;div&gt;recuperar clave&lt;/div&gt;" style="ellipse;whiteSpace=wrap;html=1;" parent="1" vertex="1">
          <mxGeometry x="140" y="400" width="120" height="40" as="geometry" />
        </mxCell>
        <mxCell id="K1Um82VQvjelmYrkA8v8-10" value="RF0-10&lt;div&gt;admin usuario&lt;/div&gt;" style="ellipse;whiteSpace=wrap;html=1;" parent="1" vertex="1">
          <mxGeometry x="360" y="270" width="120" height="40" as="geometry" />
        </mxCell>
        <mxCell id="K1Um82VQvjelmYrkA8v8-11" value="RF0-11&lt;div&gt;admin producto&lt;/div&gt;" style="ellipse;whiteSpace=wrap;html=1;" parent="1" vertex="1">
          <mxGeometry x="360" y="460" width="120" height="40" as="geometry" />
        </mxCell>
        <mxCell id="K1Um82VQvjelmYrkA8v8-12" value="RF0-12&lt;div&gt;admin chat&lt;/div&gt;" style="ellipse;whiteSpace=wrap;html=1;" parent="1" vertex="1">
          <mxGeometry x="320" y="60" width="120" height="40" as="geometry" />
        </mxCell>
        <mxCell id="K1Um82VQvjelmYrkA8v8-13" value="RF0-13&lt;div&gt;responder&lt;/div&gt;" style="ellipse;whiteSpace=wrap;html=1;" parent="1" vertex="1">
          <mxGeometry x="680" y="480" width="120" height="40" as="geometry" />
        </mxCell>
        <mxCell id="K1Um82VQvjelmYrkA8v8-14" value="RF0-14&lt;div&gt;ver PQRSs&lt;/div&gt;" style="ellipse;whiteSpace=wrap;html=1;" parent="1" vertex="1">
          <mxGeometry x="680" y="60" width="120" height="40" as="geometry" />
        </mxCell>
        <mxCell id="K1Um82VQvjelmYrkA8v8-15" value="RF0-15&lt;div&gt;ver PQRS&lt;/div&gt;" style="ellipse;whiteSpace=wrap;html=1;" parent="1" vertex="1">
          <mxGeometry x="840" y="140" width="120" height="40" as="geometry" />
        </mxCell>
        <mxCell id="K1Um82VQvjelmYrkA8v8-16" value="RF0-16&lt;div&gt;admin PQRS&lt;/div&gt;" style="ellipse;whiteSpace=wrap;html=1;" parent="1" vertex="1">
          <mxGeometry x="840" y="60" width="120" height="40" as="geometry" />
        </mxCell>
        <mxCell id="K1Um82VQvjelmYrkA8v8-17" value="RF0-17&lt;div&gt;ver denuncias&lt;/div&gt;" style="ellipse;whiteSpace=wrap;html=1;" parent="1" vertex="1">
          <mxGeometry x="680" y="190" width="120" height="40" as="geometry" />
        </mxCell>
        <mxCell id="K1Um82VQvjelmYrkA8v8-18" value="RF0-18&lt;div&gt;ver denuncia&lt;/div&gt;" style="ellipse;whiteSpace=wrap;html=1;" parent="1" vertex="1">
          <mxGeometry x="840" y="270" width="120" height="40" as="geometry" />
        </mxCell>
        <mxCell id="K1Um82VQvjelmYrkA8v8-19" value="RF0-19&lt;div&gt;admin denuncia&lt;/div&gt;" style="ellipse;whiteSpace=wrap;html=1;" parent="1" vertex="1">
          <mxGeometry x="840" y="190" width="120" height="40" as="geometry" />
        </mxCell>
        <mxCell id="K1Um82VQvjelmYrkA8v8-20" value="RF0-20&lt;div&gt;ver auditorías&lt;/div&gt;" style="ellipse;whiteSpace=wrap;html=1;" parent="1" vertex="1">
          <mxGeometry x="680" y="380" width="120" height="40" as="geometry" />
        </mxCell>
        <mxCell id="K1Um82VQvjelmYrkA8v8-21" value="RF0-21&lt;div&gt;ver estadísticas&lt;/div&gt;" style="ellipse;whiteSpace=wrap;html=1;" parent="1" vertex="1">
          <mxGeometry x="680" y="320" width="120" height="40" as="geometry" />
        </mxCell>
        <mxCell id="K1Um82VQvjelmYrkA8v8-23" value="RF0-23&lt;div&gt;ver notificaciónes&lt;/div&gt;" style="ellipse;whiteSpace=wrap;html=1;" parent="1" vertex="1">
          <mxGeometry x="680" y="430" width="120" height="40" as="geometry" />
        </mxCell>
        <mxCell id="K1Um82VQvjelmYrkA8v8-24" value="Admin" style="shape=umlActor;verticalLabelPosition=bottom;verticalAlign=top;html=1;outlineConnect=0;" parent="1" vertex="1">
          <mxGeometry x="50" y="340" width="30" height="60" as="geometry" />
        </mxCell>
        <mxCell id="K1Um82VQvjelmYrkA8v8-28" value="Filtrar" style="ellipse;whiteSpace=wrap;html=1;" parent="1" vertex="1">
          <mxGeometry x="320" y="540" width="60" height="30" as="geometry" />
        </mxCell>
        <mxCell id="K1Um82VQvjelmYrkA8v8-29" value="Filtrar" style="ellipse;whiteSpace=wrap;html=1;" parent="1" vertex="1">
          <mxGeometry x="160" y="260" width="60" height="30" as="geometry" />
        </mxCell>
        <mxCell id="K1Um82VQvjelmYrkA8v8-31" value="" style="endArrow=none;dashed=1;html=1;rounded=0;exitX=0;exitY=0.5;exitDx=0;exitDy=0;entryX=1;entryY=0.5;entryDx=0;entryDy=0;startArrow=classicThin;startFill=1;" parent="1" source="K1Um82VQvjelmYrkA8v8-10" target="K1Um82VQvjelmYrkA8v8-2" edge="1">
          <mxGeometry width="50" height="50" relative="1" as="geometry">
            <mxPoint x="218" y="436" as="sourcePoint" />
            <mxPoint x="160" y="370" as="targetPoint" />
          </mxGeometry>
        </mxCell>
        <mxCell id="K1Um82VQvjelmYrkA8v8-32" value="" style="endArrow=classicThin;dashed=1;html=1;rounded=0;exitX=0.5;exitY=0;exitDx=0;exitDy=0;entryX=0;entryY=1;entryDx=0;entryDy=0;startArrow=none;startFill=0;endFill=1;" parent="1" source="K1Um82VQvjelmYrkA8v8-7" target="K1Um82VQvjelmYrkA8v8-6" edge="1">
          <mxGeometry width="50" height="50" relative="1" as="geometry">
            <mxPoint x="188" y="566" as="sourcePoint" />
            <mxPoint x="130" y="500" as="targetPoint" />
          </mxGeometry>
        </mxCell>
        <mxCell id="K1Um82VQvjelmYrkA8v8-33" value="" style="endArrow=none;dashed=1;html=1;rounded=0;exitX=0.5;exitY=0;exitDx=0;exitDy=0;entryX=0.5;entryY=1;entryDx=0;entryDy=0;startArrow=classicThin;startFill=1;" parent="1" source="K1Um82VQvjelmYrkA8v8-2" target="K1Um82VQvjelmYrkA8v8-1" edge="1">
          <mxGeometry width="50" height="50" relative="1" as="geometry">
            <mxPoint x="218" y="576" as="sourcePoint" />
            <mxPoint x="160" y="510" as="targetPoint" />
          </mxGeometry>
        </mxCell>
        <mxCell id="K1Um82VQvjelmYrkA8v8-36" value="" style="endArrow=none;html=1;rounded=0;entryX=0;entryY=0.5;entryDx=0;entryDy=0;exitX=1;exitY=0.3333333333333333;exitDx=0;exitDy=0;exitPerimeter=0;" parent="1" source="K1Um82VQvjelmYrkA8v8-24" target="K1Um82VQvjelmYrkA8v8-1" edge="1">
          <mxGeometry width="50" height="50" relative="1" as="geometry">
            <mxPoint y="500" as="sourcePoint" />
            <mxPoint x="50" y="450" as="targetPoint" />
          </mxGeometry>
        </mxCell>
        <mxCell id="K1Um82VQvjelmYrkA8v8-37" value="" style="endArrow=none;html=1;rounded=0;entryX=0;entryY=0.5;entryDx=0;entryDy=0;exitX=1;exitY=0.3333333333333333;exitDx=0;exitDy=0;exitPerimeter=0;" parent="1" source="K1Um82VQvjelmYrkA8v8-24" target="K1Um82VQvjelmYrkA8v8-7" edge="1">
          <mxGeometry width="50" height="50" relative="1" as="geometry">
            <mxPoint x="80" y="320" as="sourcePoint" />
            <mxPoint x="90" y="440" as="targetPoint" />
          </mxGeometry>
        </mxCell>
        <mxCell id="K1Um82VQvjelmYrkA8v8-38" value="" style="endArrow=none;dashed=1;html=1;rounded=0;entryX=1;entryY=0;entryDx=0;entryDy=0;exitX=0;exitY=0.5;exitDx=0;exitDy=0;startArrow=classicThin;startFill=1;" parent="1" source="K1Um82VQvjelmYrkA8v8-4" target="K1Um82VQvjelmYrkA8v8-2" edge="1">
          <mxGeometry width="50" height="50" relative="1" as="geometry">
            <mxPoint x="428" y="296" as="sourcePoint" />
            <mxPoint x="370" y="230" as="targetPoint" />
          </mxGeometry>
        </mxCell>
        <mxCell id="K1Um82VQvjelmYrkA8v8-39" value="" style="endArrow=none;dashed=1;html=1;rounded=0;exitX=0;exitY=0.5;exitDx=0;exitDy=0;entryX=1;entryY=0.5;entryDx=0;entryDy=0;startArrow=classicThin;startFill=1;" parent="1" source="K1Um82VQvjelmYrkA8v8-11" target="K1Um82VQvjelmYrkA8v8-6" edge="1">
          <mxGeometry width="50" height="50" relative="1" as="geometry">
            <mxPoint x="178" y="696" as="sourcePoint" />
            <mxPoint x="120" y="630" as="targetPoint" />
          </mxGeometry>
        </mxCell>
        <mxCell id="K1Um82VQvjelmYrkA8v8-40" value="" style="endArrow=none;html=1;rounded=0;entryX=0;entryY=0.5;entryDx=0;entryDy=0;" parent="1" target="K1Um82VQvjelmYrkA8v8-8" edge="1">
          <mxGeometry width="50" height="50" relative="1" as="geometry">
            <mxPoint x="80" y="360" as="sourcePoint" />
            <mxPoint x="140" y="150" as="targetPoint" />
          </mxGeometry>
        </mxCell>
        <mxCell id="K1Um82VQvjelmYrkA8v8-41" value="" style="endArrow=none;dashed=1;html=1;rounded=0;exitX=0;exitY=0.5;exitDx=0;exitDy=0;entryX=1;entryY=0.5;entryDx=0;entryDy=0;endFill=0;startArrow=classicThin;startFill=1;" parent="1" source="K1Um82VQvjelmYrkA8v8-5" target="K1Um82VQvjelmYrkA8v8-8" edge="1">
          <mxGeometry width="50" height="50" relative="1" as="geometry">
            <mxPoint x="118" y="326" as="sourcePoint" />
            <mxPoint x="60" y="260" as="targetPoint" />
          </mxGeometry>
        </mxCell>
        <mxCell id="K1Um82VQvjelmYrkA8v8-42" value="" style="endArrow=classicThin;dashed=1;html=1;rounded=0;exitX=0;exitY=0;exitDx=0;exitDy=0;entryX=0.5;entryY=1;entryDx=0;entryDy=0;endFill=1;" parent="1" source="K1Um82VQvjelmYrkA8v8-4" target="K1Um82VQvjelmYrkA8v8-5" edge="1">
          <mxGeometry width="50" height="50" relative="1" as="geometry">
            <mxPoint x="358" y="256" as="sourcePoint" />
            <mxPoint x="300" y="190" as="targetPoint" />
          </mxGeometry>
        </mxCell>
        <mxCell id="K1Um82VQvjelmYrkA8v8-43" value="" style="endArrow=classicThin;dashed=1;html=1;rounded=0;exitX=0.5;exitY=0;exitDx=0;exitDy=0;entryX=0.5;entryY=1;entryDx=0;entryDy=0;endFill=1;" parent="1" source="K1Um82VQvjelmYrkA8v8-5" target="K1Um82VQvjelmYrkA8v8-12" edge="1">
          <mxGeometry width="50" height="50" relative="1" as="geometry">
            <mxPoint x="558" y="216" as="sourcePoint" />
            <mxPoint x="500" y="150" as="targetPoint" />
          </mxGeometry>
        </mxCell>
        <mxCell id="K1Um82VQvjelmYrkA8v8-44" value="" style="endArrow=classicThin;dashed=1;html=1;rounded=0;exitX=0;exitY=0.5;exitDx=0;exitDy=0;entryX=1;entryY=0.5;entryDx=0;entryDy=0;startArrow=none;startFill=0;endFill=1;" parent="1" source="K1Um82VQvjelmYrkA8v8-28" target="K1Um82VQvjelmYrkA8v8-7" edge="1">
          <mxGeometry width="50" height="50" relative="1" as="geometry">
            <mxPoint x="378" y="686" as="sourcePoint" />
            <mxPoint x="320" y="620" as="targetPoint" />
          </mxGeometry>
        </mxCell>
        <mxCell id="K1Um82VQvjelmYrkA8v8-46" value="Filtrar" style="ellipse;whiteSpace=wrap;html=1;" parent="1" vertex="1">
          <mxGeometry x="160" y="140" width="60" height="30" as="geometry" />
        </mxCell>
        <mxCell id="K1Um82VQvjelmYrkA8v8-49" value="" style="endArrow=classicThin;dashed=1;html=1;rounded=0;exitX=1;exitY=1;exitDx=0;exitDy=0;entryX=0;entryY=0;entryDx=0;entryDy=0;startArrow=none;startFill=0;endFill=1;" parent="1" source="K1Um82VQvjelmYrkA8v8-2" target="K1Um82VQvjelmYrkA8v8-3" edge="1">
          <mxGeometry width="50" height="50" relative="1" as="geometry">
            <mxPoint x="329" y="390" as="sourcePoint" />
            <mxPoint x="320" y="480" as="targetPoint" />
          </mxGeometry>
        </mxCell>
        <mxCell id="K1Um82VQvjelmYrkA8v8-50" value="" style="endArrow=classicThin;dashed=1;html=1;rounded=0;endFill=1;exitX=0;exitY=1;exitDx=0;exitDy=0;entryX=1;entryY=0;entryDx=0;entryDy=0;" parent="1" source="K1Um82VQvjelmYrkA8v8-3" target="K1Um82VQvjelmYrkA8v8-6" edge="1">
          <mxGeometry width="50" height="50" relative="1" as="geometry">
            <mxPoint x="540" y="430" as="sourcePoint" />
            <mxPoint x="500" y="490" as="targetPoint" />
            <Array as="points" />
          </mxGeometry>
        </mxCell>
        <mxCell id="K1Um82VQvjelmYrkA8v8-51" value="" style="endArrow=none;dashed=1;html=1;rounded=0;exitX=0;exitY=1;exitDx=0;exitDy=0;entryX=0.5;entryY=0;entryDx=0;entryDy=0;startArrow=classicThin;startFill=1;" parent="1" source="K1Um82VQvjelmYrkA8v8-1" target="K1Um82VQvjelmYrkA8v8-29" edge="1">
          <mxGeometry width="50" height="50" relative="1" as="geometry">
            <mxPoint x="399" y="350" as="sourcePoint" />
            <mxPoint x="390" y="440" as="targetPoint" />
          </mxGeometry>
        </mxCell>
        <mxCell id="K1Um82VQvjelmYrkA8v8-52" value="" style="endArrow=none;dashed=1;html=1;rounded=0;exitX=0;exitY=1;exitDx=0;exitDy=0;entryX=0.5;entryY=0;entryDx=0;entryDy=0;endFill=0;startArrow=classicThin;startFill=1;" parent="1" source="K1Um82VQvjelmYrkA8v8-8" target="K1Um82VQvjelmYrkA8v8-46" edge="1">
          <mxGeometry width="50" height="50" relative="1" as="geometry">
            <mxPoint x="249" y="290" as="sourcePoint" />
            <mxPoint x="240" y="380" as="targetPoint" />
          </mxGeometry>
        </mxCell>
        <mxCell id="K1Um82VQvjelmYrkA8v8-55" value="Ext" style="text;html=1;align=center;verticalAlign=middle;whiteSpace=wrap;rounded=0;" parent="1" vertex="1">
          <mxGeometry x="300" y="100" width="30" height="20" as="geometry" />
        </mxCell>
        <mxCell id="K1Um82VQvjelmYrkA8v8-56" value="Inc" style="text;html=1;align=center;verticalAlign=middle;whiteSpace=wrap;rounded=0;" parent="1" vertex="1">
          <mxGeometry x="280" y="530" width="30" height="20" as="geometry" />
        </mxCell>
        <mxCell id="K1Um82VQvjelmYrkA8v8-57" value="Inc" style="text;html=1;align=center;verticalAlign=middle;whiteSpace=wrap;rounded=0;" parent="1" vertex="1">
          <mxGeometry x="190" y="230" width="30" height="20" as="geometry" />
        </mxCell>
        <mxCell id="K1Um82VQvjelmYrkA8v8-58" value="Inc" style="text;html=1;align=center;verticalAlign=middle;whiteSpace=wrap;rounded=0;" parent="1" vertex="1">
          <mxGeometry x="190" y="110" width="30" height="20" as="geometry" />
        </mxCell>
        <mxCell id="K1Um82VQvjelmYrkA8v8-59" value="Ext" style="text;html=1;align=center;verticalAlign=middle;whiteSpace=wrap;rounded=0;" parent="1" vertex="1">
          <mxGeometry x="380" y="110" width="30" height="20" as="geometry" />
        </mxCell>
        <mxCell id="K1Um82VQvjelmYrkA8v8-60" value="Ext" style="text;html=1;align=center;verticalAlign=middle;whiteSpace=wrap;rounded=0;" parent="1" vertex="1">
          <mxGeometry x="380" y="190" width="30" height="20" as="geometry" />
        </mxCell>
        <mxCell id="K1Um82VQvjelmYrkA8v8-61" value="Ext" style="text;html=1;align=center;verticalAlign=middle;whiteSpace=wrap;rounded=0;" parent="1" vertex="1">
          <mxGeometry x="310" y="250" width="30" height="20" as="geometry" />
        </mxCell>
        <mxCell id="K1Um82VQvjelmYrkA8v8-62" value="Ext" style="text;html=1;align=center;verticalAlign=middle;whiteSpace=wrap;rounded=0;" parent="1" vertex="1">
          <mxGeometry x="245" y="250" width="30" height="20" as="geometry" />
        </mxCell>
        <mxCell id="K1Um82VQvjelmYrkA8v8-63" value="Ext" style="text;html=1;align=center;verticalAlign=middle;whiteSpace=wrap;rounded=0;" parent="1" vertex="1">
          <mxGeometry x="320" y="280" width="30" height="20" as="geometry" />
        </mxCell>
        <mxCell id="K1Um82VQvjelmYrkA8v8-65" value="Ext" style="text;html=1;align=center;verticalAlign=middle;whiteSpace=wrap;rounded=0;" parent="1" vertex="1">
          <mxGeometry x="320" y="345" width="30" height="20" as="geometry" />
        </mxCell>
        <mxCell id="K1Um82VQvjelmYrkA8v8-67" value="Ext" style="text;html=1;align=center;verticalAlign=middle;whiteSpace=wrap;rounded=0;" parent="1" vertex="1">
          <mxGeometry x="290" y="420" width="30" height="20" as="geometry" />
        </mxCell>
        <mxCell id="K1Um82VQvjelmYrkA8v8-68" value="Ext" style="text;html=1;align=center;verticalAlign=middle;whiteSpace=wrap;rounded=0;" parent="1" vertex="1">
          <mxGeometry x="320" y="460" width="30" height="20" as="geometry" />
        </mxCell>
        <mxCell id="K1Um82VQvjelmYrkA8v8-69" value="Ext" style="text;html=1;align=center;verticalAlign=middle;whiteSpace=wrap;rounded=0;" parent="1" vertex="1">
          <mxGeometry x="220" y="510" width="30" height="20" as="geometry" />
        </mxCell>
        <mxCell id="K1Um82VQvjelmYrkA8v8-72" value="Sistema" style="text;html=1;align=center;verticalAlign=middle;whiteSpace=wrap;rounded=0;" parent="1" vertex="1">
          <mxGeometry x="430" y="560" width="60" height="30" as="geometry" />
        </mxCell>
        <mxCell id="K1Um82VQvjelmYrkA8v8-86" value="Admin" style="shape=umlActor;verticalLabelPosition=bottom;verticalAlign=top;html=1;outlineConnect=0;" parent="1" vertex="1">
          <mxGeometry x="570" y="260" width="30" height="60" as="geometry" />
        </mxCell>
        <mxCell id="K1Um82VQvjelmYrkA8v8-97" value="" style="endArrow=none;html=1;rounded=0;entryX=0;entryY=0.5;entryDx=0;entryDy=0;" parent="1" target="K1Um82VQvjelmYrkA8v8-20" edge="1">
          <mxGeometry width="50" height="50" relative="1" as="geometry">
            <mxPoint x="600" y="280" as="sourcePoint" />
            <mxPoint x="590" y="230" as="targetPoint" />
          </mxGeometry>
        </mxCell>
        <mxCell id="K1Um82VQvjelmYrkA8v8-121" value="Sistema" style="text;html=1;align=center;verticalAlign=middle;whiteSpace=wrap;rounded=0;" parent="1" vertex="1">
          <mxGeometry x="910" y="500" width="60" height="30" as="geometry" />
        </mxCell>
        <mxCell id="K1Um82VQvjelmYrkA8v8-122" value="Filtrar" style="ellipse;whiteSpace=wrap;html=1;" parent="1" vertex="1">
          <mxGeometry x="680" y="140" width="60" height="30" as="geometry" />
        </mxCell>
        <mxCell id="K1Um82VQvjelmYrkA8v8-123" value="" style="endArrow=none;dashed=1;html=1;rounded=0;entryX=0.5;entryY=0;entryDx=0;entryDy=0;endFill=0;startArrow=classicThin;startFill=1;exitX=0;exitY=1;exitDx=0;exitDy=0;" parent="1" source="K1Um82VQvjelmYrkA8v8-14" target="K1Um82VQvjelmYrkA8v8-122" edge="1">
          <mxGeometry width="50" height="50" relative="1" as="geometry">
            <mxPoint x="680" y="110" as="sourcePoint" />
            <mxPoint x="760" y="380" as="targetPoint" />
          </mxGeometry>
        </mxCell>
        <mxCell id="K1Um82VQvjelmYrkA8v8-124" value="Inc" style="text;html=1;align=center;verticalAlign=middle;whiteSpace=wrap;rounded=0;" parent="1" vertex="1">
          <mxGeometry x="710" y="110" width="30" height="20" as="geometry" />
        </mxCell>
        <mxCell id="K1Um82VQvjelmYrkA8v8-125" value="Filtrar" style="ellipse;whiteSpace=wrap;html=1;" parent="1" vertex="1">
          <mxGeometry x="680" y="270" width="60" height="30" as="geometry" />
        </mxCell>
        <mxCell id="K1Um82VQvjelmYrkA8v8-126" value="" style="endArrow=none;dashed=1;html=1;rounded=0;exitX=0;exitY=1;exitDx=0;exitDy=0;entryX=0.5;entryY=0;entryDx=0;entryDy=0;endFill=0;startArrow=classicThin;startFill=1;" parent="1" source="K1Um82VQvjelmYrkA8v8-17" target="K1Um82VQvjelmYrkA8v8-125" edge="1">
          <mxGeometry width="50" height="50" relative="1" as="geometry">
            <mxPoint x="698" y="230" as="sourcePoint" />
            <mxPoint x="760" y="516" as="targetPoint" />
          </mxGeometry>
        </mxCell>
        <mxCell id="K1Um82VQvjelmYrkA8v8-127" value="Inc" style="text;html=1;align=center;verticalAlign=middle;whiteSpace=wrap;rounded=0;" parent="1" vertex="1">
          <mxGeometry x="710" y="246" width="30" height="20" as="geometry" />
        </mxCell>
        <mxCell id="K1Um82VQvjelmYrkA8v8-128" value="" style="endArrow=none;dashed=1;html=1;rounded=0;exitX=0;exitY=0.5;exitDx=0;exitDy=0;entryX=1;entryY=0.5;entryDx=0;entryDy=0;endFill=0;startArrow=classicThin;startFill=1;" parent="1" edge="1">
          <mxGeometry width="50" height="50" relative="1" as="geometry">
            <mxPoint x="840" y="160" as="sourcePoint" />
            <mxPoint x="800" y="80" as="targetPoint" />
          </mxGeometry>
        </mxCell>
        <mxCell id="K1Um82VQvjelmYrkA8v8-130" value="" style="endArrow=classicThin;dashed=1;html=1;rounded=0;exitX=0.5;exitY=0;exitDx=0;exitDy=0;entryX=0.5;entryY=1;entryDx=0;entryDy=0;endFill=1;" parent="1" edge="1">
          <mxGeometry width="50" height="50" relative="1" as="geometry">
            <mxPoint x="900" y="140" as="sourcePoint" />
            <mxPoint x="900" y="100" as="targetPoint" />
          </mxGeometry>
        </mxCell>
        <mxCell id="K1Um82VQvjelmYrkA8v8-131" value="Ext" style="text;html=1;align=center;verticalAlign=middle;whiteSpace=wrap;rounded=0;" parent="1" vertex="1">
          <mxGeometry x="820" y="100" width="30" height="20" as="geometry" />
        </mxCell>
        <mxCell id="K1Um82VQvjelmYrkA8v8-132" value="Ext" style="text;html=1;align=center;verticalAlign=middle;whiteSpace=wrap;rounded=0;" parent="1" vertex="1">
          <mxGeometry x="900" y="110" width="30" height="20" as="geometry" />
        </mxCell>
        <mxCell id="K1Um82VQvjelmYrkA8v8-134" value="" style="endArrow=none;dashed=1;html=1;rounded=0;exitX=0;exitY=0.5;exitDx=0;exitDy=0;entryX=1;entryY=0.5;entryDx=0;entryDy=0;endFill=0;startArrow=classicThin;startFill=1;" parent="1" edge="1">
          <mxGeometry width="50" height="50" relative="1" as="geometry">
            <mxPoint x="840" y="290" as="sourcePoint" />
            <mxPoint x="800" y="210" as="targetPoint" />
          </mxGeometry>
        </mxCell>
        <mxCell id="K1Um82VQvjelmYrkA8v8-135" value="" style="endArrow=classicThin;dashed=1;html=1;rounded=0;exitX=0.5;exitY=0;exitDx=0;exitDy=0;entryX=0.5;entryY=1;entryDx=0;entryDy=0;endFill=1;" parent="1" edge="1">
          <mxGeometry width="50" height="50" relative="1" as="geometry">
            <mxPoint x="900" y="270" as="sourcePoint" />
            <mxPoint x="900" y="230" as="targetPoint" />
          </mxGeometry>
        </mxCell>
        <mxCell id="K1Um82VQvjelmYrkA8v8-136" value="Ext" style="text;html=1;align=center;verticalAlign=middle;whiteSpace=wrap;rounded=0;" parent="1" vertex="1">
          <mxGeometry x="820" y="230" width="30" height="20" as="geometry" />
        </mxCell>
        <mxCell id="K1Um82VQvjelmYrkA8v8-137" value="Ext" style="text;html=1;align=center;verticalAlign=middle;whiteSpace=wrap;rounded=0;" parent="1" vertex="1">
          <mxGeometry x="900" y="240" width="30" height="20" as="geometry" />
        </mxCell>
        <mxCell id="K1Um82VQvjelmYrkA8v8-139" value="" style="endArrow=none;html=1;rounded=0;entryX=0;entryY=0.5;entryDx=0;entryDy=0;exitX=1;exitY=0.3333333333333333;exitDx=0;exitDy=0;exitPerimeter=0;" parent="1" source="K1Um82VQvjelmYrkA8v8-86" target="K1Um82VQvjelmYrkA8v8-21" edge="1">
          <mxGeometry width="50" height="50" relative="1" as="geometry">
            <mxPoint x="600" y="360" as="sourcePoint" />
            <mxPoint x="760" y="460" as="targetPoint" />
          </mxGeometry>
        </mxCell>
        <mxCell id="K1Um82VQvjelmYrkA8v8-140" value="" style="endArrow=none;html=1;rounded=0;entryX=0;entryY=0.5;entryDx=0;entryDy=0;" parent="1" target="K1Um82VQvjelmYrkA8v8-17" edge="1">
          <mxGeometry width="50" height="50" relative="1" as="geometry">
            <mxPoint x="600" y="280" as="sourcePoint" />
            <mxPoint x="740" y="410" as="targetPoint" />
          </mxGeometry>
        </mxCell>
        <mxCell id="K1Um82VQvjelmYrkA8v8-141" value="" style="endArrow=none;html=1;rounded=0;entryX=0;entryY=0.5;entryDx=0;entryDy=0;" parent="1" target="K1Um82VQvjelmYrkA8v8-14" edge="1">
          <mxGeometry width="50" height="50" relative="1" as="geometry">
            <mxPoint x="600" y="280" as="sourcePoint" />
            <mxPoint x="750" y="300" as="targetPoint" />
          </mxGeometry>
        </mxCell>
        <mxCell id="K1Um82VQvjelmYrkA8v8-142" value="Filtrar" style="ellipse;whiteSpace=wrap;html=1;" parent="1" vertex="1">
          <mxGeometry x="840" y="325" width="60" height="30" as="geometry" />
        </mxCell>
        <mxCell id="K1Um82VQvjelmYrkA8v8-143" value="Filtrar" style="ellipse;whiteSpace=wrap;html=1;" parent="1" vertex="1">
          <mxGeometry x="840" y="385" width="60" height="30" as="geometry" />
        </mxCell>
        <mxCell id="K1Um82VQvjelmYrkA8v8-144" value="" style="endArrow=none;dashed=1;html=1;rounded=0;exitX=1;exitY=0.5;exitDx=0;exitDy=0;entryX=0;entryY=0.5;entryDx=0;entryDy=0;endFill=0;startArrow=classicThin;startFill=1;" parent="1" source="K1Um82VQvjelmYrkA8v8-20" target="K1Um82VQvjelmYrkA8v8-143" edge="1">
          <mxGeometry width="50" height="50" relative="1" as="geometry">
            <mxPoint x="720" y="270" as="sourcePoint" />
            <mxPoint x="732" y="316" as="targetPoint" />
          </mxGeometry>
        </mxCell>
        <mxCell id="K1Um82VQvjelmYrkA8v8-145" value="" style="endArrow=none;dashed=1;html=1;rounded=0;exitX=1;exitY=0.5;exitDx=0;exitDy=0;entryX=0;entryY=0.5;entryDx=0;entryDy=0;endFill=0;startArrow=classicThin;startFill=1;" parent="1" source="K1Um82VQvjelmYrkA8v8-21" target="K1Um82VQvjelmYrkA8v8-142" edge="1">
          <mxGeometry width="50" height="50" relative="1" as="geometry">
            <mxPoint x="810" y="410" as="sourcePoint" />
            <mxPoint x="850" y="410" as="targetPoint" />
          </mxGeometry>
        </mxCell>
        <mxCell id="K1Um82VQvjelmYrkA8v8-146" value="Inc" style="text;html=1;align=center;verticalAlign=middle;whiteSpace=wrap;rounded=0;" parent="1" vertex="1">
          <mxGeometry x="810" y="320" width="30" height="20" as="geometry" />
        </mxCell>
        <mxCell id="K1Um82VQvjelmYrkA8v8-147" value="Inc" style="text;html=1;align=center;verticalAlign=middle;whiteSpace=wrap;rounded=0;" parent="1" vertex="1">
          <mxGeometry x="810" y="380" width="30" height="20" as="geometry" />
        </mxCell>
        <mxCell id="K1Um82VQvjelmYrkA8v8-148" value="" style="endArrow=none;html=1;rounded=0;entryX=0;entryY=0.5;entryDx=0;entryDy=0;" parent="1" target="K1Um82VQvjelmYrkA8v8-13" edge="1">
          <mxGeometry width="50" height="50" relative="1" as="geometry">
            <mxPoint x="600" y="280" as="sourcePoint" />
            <mxPoint x="730" y="440" as="targetPoint" />
          </mxGeometry>
        </mxCell>
        <mxCell id="K1Um82VQvjelmYrkA8v8-151" value="" style="endArrow=none;html=1;rounded=0;entryX=0;entryY=0.5;entryDx=0;entryDy=0;" parent="1" target="K1Um82VQvjelmYrkA8v8-23" edge="1">
          <mxGeometry width="50" height="50" relative="1" as="geometry">
            <mxPoint x="600" y="280" as="sourcePoint" />
            <mxPoint x="960" y="500" as="targetPoint" />
          </mxGeometry>
        </mxCell>
        <mxCell id="K1Um82VQvjelmYrkA8v8-157" value="RF0-02&lt;div&gt;ver usuario&lt;/div&gt;" style="ellipse;whiteSpace=wrap;html=1;" parent="1" vertex="1">
          <mxGeometry x="840" y="440" width="120" height="40" as="geometry" />
        </mxCell>
        <mxCell id="K1Um82VQvjelmYrkA8v8-160" value="" style="endArrow=classicThin;dashed=1;html=1;rounded=0;entryX=1;entryY=0.5;entryDx=0;entryDy=0;startArrow=none;startFill=0;endFill=1;exitX=0;exitY=1;exitDx=0;exitDy=0;" parent="1" source="K1Um82VQvjelmYrkA8v8-157" target="K1Um82VQvjelmYrkA8v8-13" edge="1">
          <mxGeometry width="50" height="50" relative="1" as="geometry">
            <mxPoint x="870" y="580" as="sourcePoint" />
            <mxPoint x="830" y="620" as="targetPoint" />
          </mxGeometry>
        </mxCell>
        <mxCell id="K1Um82VQvjelmYrkA8v8-161" value="Ext" style="text;html=1;align=center;verticalAlign=middle;whiteSpace=wrap;rounded=0;" parent="1" vertex="1">
          <mxGeometry x="800" y="470" width="30" height="20" as="geometry" />
        </mxCell>
        <mxCell id="uM7xGd1-Co7NzJy6ZERL-2" value="Filtrar" style="ellipse;whiteSpace=wrap;html=1;" parent="1" vertex="1">
          <mxGeometry x="220" y="365" width="60" height="30" as="geometry" />
        </mxCell>
        <mxCell id="uM7xGd1-Co7NzJy6ZERL-3" value="" style="endArrow=classicThin;dashed=1;html=1;rounded=0;exitX=1;exitY=0.5;exitDx=0;exitDy=0;entryX=0;entryY=0.5;entryDx=0;entryDy=0;startArrow=none;startFill=0;endFill=1;" parent="1" source="uM7xGd1-Co7NzJy6ZERL-2" target="K1Um82VQvjelmYrkA8v8-3" edge="1">
          <mxGeometry width="50" height="50" relative="1" as="geometry">
            <mxPoint x="180" y="240" as="sourcePoint" />
            <mxPoint x="192" y="286" as="targetPoint" />
          </mxGeometry>
        </mxCell>
        <mxCell id="uM7xGd1-Co7NzJy6ZERL-4" value="Inc" style="text;html=1;align=center;verticalAlign=middle;whiteSpace=wrap;rounded=0;" parent="1" vertex="1">
          <mxGeometry x="280" y="365" width="30" height="20" as="geometry" />
        </mxCell>
        <mxCell id="uM7xGd1-Co7NzJy6ZERL-5" value="Filtrar" style="ellipse;whiteSpace=wrap;html=1;" parent="1" vertex="1">
          <mxGeometry x="300" y="190" width="60" height="30" as="geometry" />
        </mxCell>
        <mxCell id="uM7xGd1-Co7NzJy6ZERL-6" value="" style="endArrow=classicThin;dashed=1;html=1;rounded=0;exitX=1;exitY=1;exitDx=0;exitDy=0;entryX=0.055;entryY=0.24;entryDx=0;entryDy=0;startArrow=none;startFill=0;entryPerimeter=0;endFill=1;" parent="1" source="uM7xGd1-Co7NzJy6ZERL-5" target="K1Um82VQvjelmYrkA8v8-4" edge="1">
          <mxGeometry width="50" height="50" relative="1" as="geometry">
            <mxPoint x="210" y="380" as="sourcePoint" />
            <mxPoint x="228" y="411" as="targetPoint" />
          </mxGeometry>
        </mxCell>
        <mxCell id="uM7xGd1-Co7NzJy6ZERL-7" value="Inc" style="text;html=1;align=center;verticalAlign=middle;whiteSpace=wrap;rounded=0;" parent="1" vertex="1">
          <mxGeometry x="330" y="220" width="30" height="20" as="geometry" />
        </mxCell>
        <mxCell id="yDs9t8l3PE48G0VdzlAU-1" value="" style="endArrow=none;html=1;rounded=0;entryX=0;entryY=0.5;entryDx=0;entryDy=0;" parent="1" target="K1Um82VQvjelmYrkA8v8-9" edge="1">
          <mxGeometry width="50" height="50" relative="1" as="geometry">
            <mxPoint x="80" y="360" as="sourcePoint" />
            <mxPoint x="70" y="490" as="targetPoint" />
          </mxGeometry>
        </mxCell>
        <mxCell id="RIEb4PKsh_ifWzE6iPA4-1" value="" style="rounded=0;whiteSpace=wrap;html=1;" parent="1" vertex="1">
          <mxGeometry x="1120" y="40" width="340" height="440" as="geometry" />
        </mxCell>
        <mxCell id="RIEb4PKsh_ifWzE6iPA4-3" value="RF0-24&lt;div&gt;iniciar sesión&lt;/div&gt;" style="ellipse;whiteSpace=wrap;html=1;" parent="1" vertex="1">
          <mxGeometry x="1160" y="120" width="120" height="40" as="geometry" />
        </mxCell>
        <mxCell id="RIEb4PKsh_ifWzE6iPA4-6" value="RF0-26&lt;div&gt;desbloqueo PIN&lt;/div&gt;" style="ellipse;whiteSpace=wrap;html=1;" parent="1" vertex="1">
          <mxGeometry x="1160" y="180" width="120" height="40" as="geometry" />
        </mxCell>
        <mxCell id="RIEb4PKsh_ifWzE6iPA4-13" value="Admin" style="shape=umlActor;verticalLabelPosition=bottom;verticalAlign=top;html=1;outlineConnect=0;" parent="1" vertex="1">
          <mxGeometry x="1050" y="220" width="30" height="60" as="geometry" />
        </mxCell>
        <mxCell id="RIEb4PKsh_ifWzE6iPA4-15" value="Sistema" style="text;html=1;align=center;verticalAlign=middle;whiteSpace=wrap;rounded=0;" parent="1" vertex="1">
          <mxGeometry x="1390" y="440" width="60" height="30" as="geometry" />
        </mxCell>
        <mxCell id="RIEb4PKsh_ifWzE6iPA4-20" value="" style="endArrow=none;dashed=1;html=1;rounded=0;entryX=1;entryY=0.5;entryDx=0;entryDy=0;endFill=0;startArrow=classicThin;startFill=1;exitX=0;exitY=0.5;exitDx=0;exitDy=0;" parent="1" source="RIEb4PKsh_ifWzE6iPA4-50" target="RIEb4PKsh_ifWzE6iPA4-3" edge="1">
          <mxGeometry width="50" height="50" relative="1" as="geometry">
            <mxPoint x="1180" y="180" as="sourcePoint" />
            <mxPoint x="1240" y="576" as="targetPoint" />
          </mxGeometry>
        </mxCell>
        <mxCell id="RIEb4PKsh_ifWzE6iPA4-21" value="Ext" style="text;html=1;align=center;verticalAlign=middle;whiteSpace=wrap;rounded=0;" parent="1" vertex="1">
          <mxGeometry x="1280" y="120" width="30" height="20" as="geometry" />
        </mxCell>
        <mxCell id="RIEb4PKsh_ifWzE6iPA4-30" value="" style="endArrow=none;html=1;rounded=0;entryX=0;entryY=0.5;entryDx=0;entryDy=0;exitX=1;exitY=0.3333333333333333;exitDx=0;exitDy=0;exitPerimeter=0;" parent="1" source="RIEb4PKsh_ifWzE6iPA4-13" target="RIEb4PKsh_ifWzE6iPA4-52" edge="1">
          <mxGeometry width="50" height="50" relative="1" as="geometry">
            <mxPoint x="1080" y="420" as="sourcePoint" />
            <mxPoint x="1160" y="400" as="targetPoint" />
          </mxGeometry>
        </mxCell>
        <mxCell id="RIEb4PKsh_ifWzE6iPA4-31" value="" style="endArrow=none;html=1;rounded=0;entryX=0;entryY=0.5;entryDx=0;entryDy=0;" parent="1" target="RIEb4PKsh_ifWzE6iPA4-6" edge="1">
          <mxGeometry width="50" height="50" relative="1" as="geometry">
            <mxPoint x="1080" y="240" as="sourcePoint" />
            <mxPoint x="1220" y="470" as="targetPoint" />
          </mxGeometry>
        </mxCell>
        <mxCell id="RIEb4PKsh_ifWzE6iPA4-32" value="" style="endArrow=none;html=1;rounded=0;entryX=0;entryY=0.5;entryDx=0;entryDy=0;" parent="1" target="RIEb4PKsh_ifWzE6iPA4-3" edge="1">
          <mxGeometry width="50" height="50" relative="1" as="geometry">
            <mxPoint x="1080" y="240" as="sourcePoint" />
            <mxPoint x="1230" y="360" as="targetPoint" />
          </mxGeometry>
        </mxCell>
        <mxCell id="RIEb4PKsh_ifWzE6iPA4-36" value="" style="endArrow=none;dashed=1;html=1;rounded=0;exitX=1;exitY=0.5;exitDx=0;exitDy=0;entryX=0;entryY=0.5;entryDx=0;entryDy=0;endFill=0;startArrow=classicThin;startFill=1;" parent="1" source="RIEb4PKsh_ifWzE6iPA4-6" target="RIEb4PKsh_ifWzE6iPA4-51" edge="1">
          <mxGeometry width="50" height="50" relative="1" as="geometry">
            <mxPoint x="1280" y="360" as="sourcePoint" />
            <mxPoint x="1330" y="430" as="targetPoint" />
          </mxGeometry>
        </mxCell>
        <mxCell id="RIEb4PKsh_ifWzE6iPA4-37" value="Inc" style="text;html=1;align=center;verticalAlign=middle;whiteSpace=wrap;rounded=0;" parent="1" vertex="1">
          <mxGeometry x="1290" y="180" width="30" height="20" as="geometry" />
        </mxCell>
        <mxCell id="RIEb4PKsh_ifWzE6iPA4-50" value="RF0-25&lt;div&gt;bloqueo temporal&lt;/div&gt;" style="ellipse;whiteSpace=wrap;html=1;" parent="1" vertex="1">
          <mxGeometry x="1320" y="120" width="120" height="40" as="geometry" />
        </mxCell>
        <mxCell id="RIEb4PKsh_ifWzE6iPA4-51" value="RF0-26&lt;div&gt;bloqueo PIN&lt;/div&gt;" style="ellipse;whiteSpace=wrap;html=1;" parent="1" vertex="1">
          <mxGeometry x="1320" y="180" width="120" height="40" as="geometry" />
        </mxCell>
        <mxCell id="RIEb4PKsh_ifWzE6iPA4-52" value="RF0-27&lt;div&gt;cambiar PIN&lt;/div&gt;" style="ellipse;whiteSpace=wrap;html=1;" parent="1" vertex="1">
          <mxGeometry x="1160" y="240" width="120" height="40" as="geometry" />
        </mxCell>
        <mxCell id="RIEb4PKsh_ifWzE6iPA4-53" value="RF0-28&lt;div&gt;ver papelera&lt;/div&gt;" style="ellipse;whiteSpace=wrap;html=1;" parent="1" vertex="1">
          <mxGeometry x="1160" y="300" width="120" height="40" as="geometry" />
        </mxCell>
        <mxCell id="RIEb4PKsh_ifWzE6iPA4-54" value="" style="endArrow=none;html=1;rounded=0;entryX=0;entryY=0.5;entryDx=0;entryDy=0;" parent="1" target="RIEb4PKsh_ifWzE6iPA4-53" edge="1">
          <mxGeometry width="50" height="50" relative="1" as="geometry">
            <mxPoint x="1080" y="240" as="sourcePoint" />
            <mxPoint x="1180" y="660" as="targetPoint" />
          </mxGeometry>
        </mxCell>
        <mxCell id="RIEb4PKsh_ifWzE6iPA4-55" value="RF0-02&lt;div&gt;ver usuario&lt;/div&gt;" style="ellipse;whiteSpace=wrap;html=1;" parent="1" vertex="1">
          <mxGeometry x="1320" y="300" width="120" height="40" as="geometry" />
        </mxCell>
        <mxCell id="RIEb4PKsh_ifWzE6iPA4-56" value="" style="endArrow=classicThin;dashed=1;html=1;rounded=0;entryX=1;entryY=0.5;entryDx=0;entryDy=0;startArrow=none;startFill=0;endFill=1;exitX=0;exitY=0.5;exitDx=0;exitDy=0;" parent="1" source="RIEb4PKsh_ifWzE6iPA4-55" target="RIEb4PKsh_ifWzE6iPA4-53" edge="1">
          <mxGeometry width="50" height="50" relative="1" as="geometry">
            <mxPoint x="1274.58" y="714" as="sourcePoint" />
            <mxPoint x="1274.58" y="630" as="targetPoint" />
          </mxGeometry>
        </mxCell>
        <mxCell id="RIEb4PKsh_ifWzE6iPA4-57" value="Ext" style="text;html=1;align=center;verticalAlign=middle;whiteSpace=wrap;rounded=0;" parent="1" vertex="1">
          <mxGeometry x="1290" y="300" width="30" height="20" as="geometry" />
        </mxCell>
        <mxCell id="RIEb4PKsh_ifWzE6iPA4-59" value="RF0-29&lt;div&gt;bloqueo admins&lt;/div&gt;" style="ellipse;whiteSpace=wrap;html=1;" parent="1" vertex="1">
          <mxGeometry x="360" y="330" width="120" height="40" as="geometry" />
        </mxCell>
        <mxCell id="RIEb4PKsh_ifWzE6iPA4-60" value="" style="endArrow=none;dashed=1;html=1;rounded=0;exitX=0;exitY=1;exitDx=0;exitDy=0;entryX=0;entryY=0;entryDx=0;entryDy=0;startArrow=classicThin;startFill=1;" parent="1" source="K1Um82VQvjelmYrkA8v8-10" target="RIEb4PKsh_ifWzE6iPA4-59" edge="1">
          <mxGeometry width="50" height="50" relative="1" as="geometry">
            <mxPoint x="420" y="310" as="sourcePoint" />
            <mxPoint x="380" y="340" as="targetPoint" />
          </mxGeometry>
        </mxCell>
        <mxCell id="RIEb4PKsh_ifWzE6iPA4-61" value="Inc" style="text;html=1;align=center;verticalAlign=middle;whiteSpace=wrap;rounded=0;" parent="1" vertex="1">
          <mxGeometry x="350" y="310" width="30" height="20" as="geometry" />
        </mxCell>
        <mxCell id="RIEb4PKsh_ifWzE6iPA4-62" value="Master" style="shape=umlActor;verticalLabelPosition=bottom;verticalAlign=top;html=1;outlineConnect=0;" parent="1" vertex="1">
          <mxGeometry x="1050" y="380" width="30" height="60" as="geometry" />
        </mxCell>
        <mxCell id="RIEb4PKsh_ifWzE6iPA4-63" value="RF0-30&lt;div&gt;ver logins&lt;/div&gt;" style="ellipse;whiteSpace=wrap;html=1;" parent="1" vertex="1">
          <mxGeometry x="1160" y="420" width="120" height="40" as="geometry" />
        </mxCell>
        <mxCell id="RIEb4PKsh_ifWzE6iPA4-64" value="" style="endArrow=none;html=1;rounded=0;entryX=0;entryY=0.5;entryDx=0;entryDy=0;exitX=1;exitY=0.3333333333333333;exitDx=0;exitDy=0;exitPerimeter=0;" parent="1" source="RIEb4PKsh_ifWzE6iPA4-62" target="RIEb4PKsh_ifWzE6iPA4-63" edge="1">
          <mxGeometry width="50" height="50" relative="1" as="geometry">
            <mxPoint x="1050" y="460" as="sourcePoint" />
            <mxPoint x="1190" y="580" as="targetPoint" />
          </mxGeometry>
        </mxCell>
        <mxCell id="RIEb4PKsh_ifWzE6iPA4-65" value="RF0-22&lt;div&gt;roles usuario&lt;/div&gt;" style="ellipse;whiteSpace=wrap;html=1;" parent="1" vertex="1">
          <mxGeometry x="1160" y="360" width="120" height="40" as="geometry" />
        </mxCell>
        <mxCell id="RIEb4PKsh_ifWzE6iPA4-66" value="" style="endArrow=classicThin;dashed=1;html=1;rounded=0;entryX=1;entryY=0.5;entryDx=0;entryDy=0;startArrow=none;startFill=0;endFill=1;exitX=0;exitY=1;exitDx=0;exitDy=0;" parent="1" source="RIEb4PKsh_ifWzE6iPA4-55" target="RIEb4PKsh_ifWzE6iPA4-65" edge="1">
          <mxGeometry width="50" height="50" relative="1" as="geometry">
            <mxPoint x="1328" y="409" as="sourcePoint" />
            <mxPoint x="1270" y="425" as="targetPoint" />
          </mxGeometry>
        </mxCell>
        <mxCell id="RIEb4PKsh_ifWzE6iPA4-67" value="Ext" style="text;html=1;align=center;verticalAlign=middle;whiteSpace=wrap;rounded=0;" parent="1" vertex="1">
          <mxGeometry x="1280" y="340" width="30" height="20" as="geometry" />
        </mxCell>
        <mxCell id="RIEb4PKsh_ifWzE6iPA4-68" value="" style="endArrow=none;html=1;rounded=0;entryX=0;entryY=0.5;entryDx=0;entryDy=0;" parent="1" target="RIEb4PKsh_ifWzE6iPA4-65" edge="1">
          <mxGeometry width="50" height="50" relative="1" as="geometry">
            <mxPoint x="1080" y="400" as="sourcePoint" />
            <mxPoint x="1200" y="470" as="targetPoint" />
          </mxGeometry>
        </mxCell>
        <mxCell id="5M-bRTiZLKOLzmBQsFh--1" value="RF0-31&lt;div&gt;cerrar sesión&lt;/div&gt;" style="ellipse;whiteSpace=wrap;html=1;" parent="1" vertex="1">
          <mxGeometry x="1320" y="60" width="120" height="40" as="geometry" />
        </mxCell>
        <mxCell id="-qJWmuAeHSzsKn9Ildi0-1" value="" style="endArrow=none;dashed=1;html=1;rounded=0;entryX=1;entryY=0;entryDx=0;entryDy=0;endFill=0;startArrow=classicThin;startFill=1;exitX=0;exitY=0.5;exitDx=0;exitDy=0;" edge="1" parent="1" source="5M-bRTiZLKOLzmBQsFh--1" target="RIEb4PKsh_ifWzE6iPA4-3">
          <mxGeometry width="50" height="50" relative="1" as="geometry">
            <mxPoint x="1350" y="140" as="sourcePoint" />
            <mxPoint x="1310" y="140" as="targetPoint" />
          </mxGeometry>
        </mxCell>
        <mxCell id="-qJWmuAeHSzsKn9Ildi0-2" value="Ext" style="text;html=1;align=center;verticalAlign=middle;whiteSpace=wrap;rounded=0;" vertex="1" parent="1">
          <mxGeometry x="1260" y="80" width="30" height="20" as="geometry" />
        </mxCell>
      </root>
    </mxGraphModel>
  </diagram>
</mxfile>
